<svg width="676" height="486" viewBox="0 0 676 486" fill="none" xmlns="http://www.w3.org/2000/svg">
<mask id="mask0_8086_946" style="mask-type:alpha" maskUnits="userSpaceOnUse" x="0" y="0" width="676" height="486">
<rect width="676" height="486" fill="#D9D9D9"/>
</mask>
<g mask="url(#mask0_8086_946)">
<rect x="160.298" y="134" width="1001.36" height="352" rx="176" fill="#5267DF"/>
<g filter="url(#filter0_d_8086_946)">
<rect x="5.58789" y="0.5" width="578.787" height="385" rx="26" fill="#777777"/>
</g>
<rect x="7.59061" y="2.5" width="575.013" height="381.865" rx="25" fill="url(#paint0_linear_8086_946)"/>
<rect opacity="0.1" x="59.6919" y="16.803" width="472.105" height="353.756" rx="5" fill="#2A2A2A"/>
<rect x="26.6469" y="19.803" width="536.73" height="346" rx="8" fill="#E8EAF6"/>
<mask id="mask1_8086_946" style="mask-type:luminance" maskUnits="userSpaceOnUse" x="26" y="19" width="538" height="347">
<rect x="26.6469" y="19.803" width="536.73" height="346" rx="8" fill="white"/>
</mask>
<g mask="url(#mask1_8086_946)">
<rect x="23.1117" y="20" width="547.745" height="59" fill="#5267DF"/>
<ellipse opacity="0.244768" cx="65.1689" cy="50" rx="16.0218" ry="16" fill="white"/>
<ellipse opacity="0.104399" cx="526.797" cy="50" rx="16.0218" ry="16" fill="white"/>
<rect opacity="0.75" x="96.2112" y="40" width="120.163" height="6" rx="3" fill="white"/>
<rect opacity="0.25" x="96.2112" y="54" width="64.0872" height="6" rx="3" fill="white"/>
<rect x="83.7246" y="112.803" width="261.356" height="316" rx="8" fill="white"/>
<rect x="379.127" y="112.803" width="128.174" height="316" rx="8" fill="white"/>
<rect opacity="0.5" x="162.301" y="151" width="120.163" height="6" rx="3" fill="#242A45"/>
</g>
<ellipse cx="131.259" cy="161" rx="16.0218" ry="16" fill="#F98E5D"/>
<rect opacity="0.25" x="399.624" y="135" width="88.1199" height="6" rx="3" fill="#242A45"/>
<rect opacity="0.25" x="399.624" y="155" width="88.1199" height="6" rx="3" fill="#242A45"/>
<rect opacity="0.25" x="399.624" y="175" width="88.1199" height="6" rx="3" fill="#242A45"/>
<rect opacity="0.25" x="399.624" y="195" width="88.1199" height="6" rx="3" fill="#242A45"/>
<rect opacity="0.25" x="399.624" y="229" width="88.1199" height="6" rx="3" fill="#242A45"/>
<rect opacity="0.25" x="399.624" y="249" width="88.1199" height="6" rx="3" fill="#242A45"/>
<rect opacity="0.25" x="399.624" y="269" width="88.1199" height="6" rx="3" fill="#242A45"/>
<rect opacity="0.25" x="162.301" y="165" width="64.0872" height="6" rx="3" fill="#242A45"/>
<ellipse cx="131.259" cy="217" rx="16.0218" ry="16" fill="#6AC6D6"/>
<rect opacity="0.5" x="162.301" y="207" width="120.163" height="6" rx="3" fill="#242A45"/>
<rect opacity="0.25" x="162.301" y="221" width="64.0872" height="6" rx="3" fill="#242A45"/>
<ellipse cx="131.259" cy="273" rx="16.0218" ry="16" fill="#A47ED4"/>
<rect opacity="0.5" x="162.301" y="263" width="120.163" height="6" rx="3" fill="#242A45"/>
<rect opacity="0.25" x="162.301" y="277" width="64.0872" height="6" rx="3" fill="#242A45"/>
<ellipse cx="131.259" cy="329" rx="16.0218" ry="16" fill="#EC7878"/>
<rect opacity="0.5" x="162.301" y="319" width="120.163" height="6" rx="3" fill="#242A45"/>
<rect opacity="0.25" x="162.301" y="333" width="64.0872" height="6" rx="3" fill="#242A45"/>
</g>
<defs>
<filter id="filter0_d_8086_946" x="-34.4121" y="-9.5" width="658.787" height="465" filterUnits="userSpaceOnUse" color-interpolation-filters="sRGB">
<feFlood flood-opacity="0" result="BackgroundImageFix"/>
<feColorMatrix in="SourceAlpha" type="matrix" values="0 0 0 0 0 0 0 0 0 0 0 0 0 0 0 0 0 0 127 0" result="hardAlpha"/>
<feOffset dy="30"/>
<feGaussianBlur stdDeviation="20"/>
<feColorMatrix type="matrix" values="0 0 0 0 0.182433 0 0 0 0 0.230633 0 0 0 0 0.506058 0 0 0 0.05 0"/>
<feBlend mode="normal" in2="BackgroundImageFix" result="effect1_dropShadow_8086_946"/>
<feBlend mode="normal" in="SourceGraphic" in2="effect1_dropShadow_8086_946" result="shape"/>
</filter>
<linearGradient id="paint0_linear_8086_946" x1="854.284" y1="196.406" x2="514.747" y2="-314.87" gradientUnits="userSpaceOnUse">
<stop stop-color="#151515"/>
<stop offset="1" stop-color="#3D3D3D"/>
</linearGradient>
</defs>
</svg>
